<svg viewBox="0 0 682.667 682.667" xmlns="http://www.w3.org/2000/svg" xmlns:xlink="http://www.w3.org/1999/xlink"><style>:root&gt;svg{display:none}:root&gt;svg:target{display:block}</style><svg viewBox="0 0 512 512" id="css--cart" xmlns="http://www.w3.org/2000/svg"><path d="M452 120h-60.946C383.109 52.522 325.577 0 256 0S128.891 52.522 120.946 120H60c-11.046 0-20 8.954-20 20v352c0 11.046 8.954 20 20 20h392c11.046 0 20-8.954 20-20V140c0-11.046-8.954-20-20-20zM256 40c47.484 0 87.019 34.655 94.659 80H161.341c7.64-45.345 47.175-80 94.659-80zm176 432H80V160h40v60c0 11.046 8.954 20 20 20s20-8.954 20-20v-60h192v60c0 11.046 8.954 20 20 20s20-8.954 20-20v-60h40z"/></svg><svg viewBox="0 0 512 512" id="css--search" xmlns="http://www.w3.org/2000/svg"><path d="M194 1.1c-35.7 3.7-71.3 17.7-102 40.3-11.4 8.3-32.3 29-40.7 40.2-26.4 34.9-40.5 74.5-42 117.9-.9 25.9 2.3 48.1 10.3 72.3 10 30.1 27.2 57.8 50 80.6 33.4 33.4 75.6 53.9 122.7 59.7 12.7 1.5 45.1.7 57.2-1.5 28.1-5.1 53.1-14.7 75.8-28.9l8.7-5.6 61.4 63.8c33.7 35 62.7 64.9 64.4 66.3 10.8 9 29.4 6.5 37.6-5 4.2-5.8 5.4-9.6 5.5-16.4.2-10.8-.5-11.7-65.4-79-32.4-33.6-60-62.4-61.2-63.9l-2.3-2.7 5.4-6.8c36.2-46.5 50.3-107.6 38.5-167.4-5.9-29.9-21.4-62.7-41.2-87.3C332.5 22.7 263.8-6 194 1.1zm41 54.3c64.9 8.7 116.3 56.2 130 120.2 2.8 12.7 3.8 38.2 2 50.3-4.9 34.8-19.6 64.5-43.6 88.5-23.1 23.2-51.8 37.8-84.4 43.2-10.9 1.8-34.9 1.8-46.6 0-42.2-6.4-80.4-30.9-103.9-66.6-8.4-12.7-12.9-22-17.5-35.9-5.1-15.1-7.1-26.4-7.7-43.4C60 126.4 128.8 54.8 214.5 54.1c5.5 0 14.7.6 20.5 1.3z"/></svg><svg version="1.0" viewBox="0 0 125 20" id="include--logo" xmlns="http://www.w3.org/2000/svg"><path d="M5.3 1C2.1 2.3-.3 7.5.4 11.5c.8 4.1 3.4 6.4 7.8 7.1 2.8.5 4 .1 6.4-2l2.9-2.5-3.1 1.1c-4.6 1.7-8.2.3-10.1-3.8-1.6-3.2-1.6-3.8-.2-6.2 1.9-3.4 6.1-4.1 8.1-1.3 1 1.4 1.8 1.7 2.8 1 1.3-.8 1.1-1.3-.9-2.9C11.6-.1 8.9-.4 5.3 1zM24.5.9c-3.7 1.6-6 5.1-6 9.2 0 5 2.8 7.9 8.3 8.6 3.7.5 4.5.2 7.7-3 4.2-4.2 4.6-8.3 1.3-12.2C33.3.7 27.9-.6 24.5.9zM32 4c2.5 2.5 2.7 9.1.4 11.4C28.6 19.3 22 15 22 8.7c0-6 5.9-8.8 10-4.7zm11.1-2.3c-3.6 2.9-2.3 6.3 3.4 9.1 3.3 1.6 4.5 2.8 4.3 4-.4 2.4-5.5 2.8-7.9.6-1.7-1.5-1.9-1.5-1.9-.1 0 4.5 10.2 4.6 12.2.2 1.3-3 0-4.9-5.1-7.3-4.2-2-5-5.5-1.3-6 1.3-.2 2.9.2 3.7.8 1 .8 1.5.8 2 0 1-1.5.3-2-3.6-2.6-2.5-.4-4.1-.1-5.8 1.3zm20-.1c-1.7 1.2-2.5 1.4-3 .5-.4-.6-1.4-.9-2.2-.6-1.1.4-1.4 2.6-1.4 9V19h2.8c2.4 0 2.6-.2 1.7-1.9-.5-1.1-1-3.8-1-6.1 0-5.7 1.4-8 5-8 1.9 0 3.3.7 4 1.9 1.4 2.7 1.3 11.4-.2 12.9-.9.9-.5 1.2 1.8 1.2h2.9l-.3-6.5c-.4-7.2.6-9.5 4.3-9.5 3.7 0 4.7 2.3 4.3 9.5l-.3 6.5h2.8c2.4 0 2.6-.2 1.7-1.9-.5-1.1-1-4.6-1-7.9 0-8.4-3.4-11.1-9.8-7.8-2.4 1.2-3 1.2-4.7 0C68-.4 66-.4 63.1 1.6zm50 .1c-3.6 2.9-2.3 6.3 3.4 9.1 3.3 1.6 4.5 2.8 4.3 4-.4 2.4-5.5 2.8-7.9.6-1.7-1.5-1.9-1.5-1.9-.1 0 4.5 10.2 4.6 12.2.2 1.3-3 0-4.9-5.1-7.3-4.2-2-5-5.5-1.3-6 1.3-.2 2.9.2 3.7.8 1 .8 1.5.8 2 0 1-1.5.3-2-3.6-2.6-2.5-.4-4.1-.1-5.8 1.3z"/></svg></svg>