<?xml version="1.0" standalone="no"?>
<!DOCTYPE svg PUBLIC "-//W3C//DTD SVG 20010904//EN"
 "http://www.w3.org/TR/2001/REC-SVG-20010904/DTD/svg10.dtd">
<svg version="1.0" xmlns="http://www.w3.org/2000/svg"
 width="125.000000pt" height="20.000000pt" viewBox="0 0 125.000000 20.000000"
 preserveAspectRatio="xMidYMid meet">

<g transform="translate(0.000000,20.000000) scale(0.100000,-0.100000)"
fill="#000000" stroke="none">
<path d="M53 190 c-32 -13 -56 -65 -49 -105 8 -41 34 -64 78 -71 28 -5 40 -1
64 20 l29 25 -31 -11 c-46 -17 -82 -3 -101 38 -16 32 -16 38 -2 62 19 34 61
41 81 13 10 -14 18 -17 28 -10 13 8 11 13 -9 29 -25 21 -52 24 -88 10z"/>
<path d="M245 191 c-37 -16 -60 -51 -60 -92 0 -50 28 -79 83 -86 37 -5 45 -2
77 30 42 42 46 83 13 122 -25 28 -79 41 -113 26z m75 -31 c25 -25 27 -91 4
-114 -38 -39 -104 4 -104 67 0 60 59 88 100 47z"/>
<path d="M431 183 c-36 -29 -23 -63 34 -91 33 -16 45 -28 43 -40 -4 -24 -55
-28 -79 -6 -17 15 -19 15 -19 1 0 -45 102 -46 122 -2 13 30 0 49 -51 73 -42
20 -50 55 -13 60 13 2 29 -2 37 -8 10 -8 15 -8 20 0 10 15 3 20 -36 26 -25 4
-41 1 -58 -13z"/>
<path d="M631 184 c-17 -12 -25 -14 -30 -5 -4 6 -14 9 -22 6 -11 -4 -14 -26
-14 -90 l0 -85 28 0 c24 0 26 2 17 19 -5 11 -10 38 -10 61 0 57 14 80 50 80
19 0 33 -7 40 -19 14 -27 13 -114 -2 -129 -9 -9 -5 -12 18 -12 l29 0 -3 65
c-4 72 6 95 43 95 37 0 47 -23 43 -95 l-3 -65 28 0 c24 0 26 2 17 19 -5 11
-10 46 -10 79 0 84 -34 111 -98 78 -24 -12 -30 -12 -47 0 -25 18 -45 18 -74
-2z"/>
<path d="M1131 183 c-36 -29 -23 -63 34 -91 33 -16 45 -28 43 -40 -4 -24 -55
-28 -79 -6 -17 15 -19 15 -19 1 0 -45 102 -46 122 -2 13 30 0 49 -51 73 -42
20 -50 55 -13 60 13 2 29 -2 37 -8 10 -8 15 -8 20 0 10 15 3 20 -36 26 -25 4
-41 1 -58 -13z"/>
</g>
</svg>
